REM DIRINDEX 1
REM DIRNAME cjc069
TITLE ""
FILE "Disk1Track42.mp3" MP3
  TRACK 01 AUDIO
    TITLE "1:cjc069_0291"
    INDEX 01 00:00:00
  TRACK 02 AUDIO
    TITLE "1:cjc069_0292"
    INDEX 01 00:06:69
  TRACK 03 AUDIO
    TITLE "1:cjc069_0293"
    INDEX 01 00:22:03
  TRACK 04 AUDIO
    TITLE "1:cjc069_0294"
    INDEX 01 00:30:63
  TRACK 05 AUDIO
    TITLE "1:cjc069_0295"
    INDEX 01 00:49:29
  TRACK 06 AUDIO
    TITLE "0:"
    INDEX 01 00:59:39
